<svg width="32" height="32" viewBox="0 0 32 32" fill="none" xmlns="http://www.w3.org/2000/svg">
<g clip-path="url(#clip0_102_3485)">
<path d="M7.92549 22.5613C9.93305 22.6789 10.0787 19.4991 8.05499 19.467C5.8878 19.449 5.72011 22.411 7.92549 22.5613ZM11.325 20.2125C10.815 21.0096 11.2059 22.2061 12.0916 22.5469C14.484 23.3081 15.3382 19.6302 12.7947 19.3878C12.1918 19.3374 11.6591 19.7456 11.325 20.2125ZM17.6149 22.5673C19.7204 22.4055 19.5296 19.484 17.464 19.4725C15.42 19.4711 15.5609 22.6826 17.6149 22.5673Z" fill="white"/>
<path d="M21.7386 29.7787C20.2783 29.5173 18.7699 29.3393 17.2825 29.2703C14.8831 29.1916 12.3028 29.3129 9.90283 29.4521C8.24064 29.4439 5.80195 29.8886 4.31689 29.2042C2.71645 28.2181 2.49083 26.0309 2.70183 24.3039C2.69577 22.9778 2.72533 21.5205 2.75858 20.1861C2.76333 19.8415 2.79014 19.1578 2.80314 18.8126C2.80443 18.7833 2.80355 18.7538 2.80052 18.7246C2.82795 18.1842 2.8622 17.6507 2.94389 17.1341C3.20483 15.1969 4.0677 13.3357 6.27652 13.3326C8.9462 12.9935 11.639 12.6952 14.3395 12.7173C16.632 12.7419 19.14 12.7903 21.429 12.8398C22.3544 12.875 23.2853 12.8199 24.201 12.9077C24.694 12.9212 25.4283 13.3291 25.6235 12.6476C25.8964 11.5767 22.9155 11.8147 21.8805 11.7647C22.2158 9.97974 22.2535 8.11856 21.962 6.31062C21.3151 2.09531 18.4346 -0.699067 14.0318 0.15312C10.936 0.705808 8.67195 3.17693 8.55433 6.33931C8.37533 7.99031 8.69227 9.66193 8.54327 11.3064C8.31195 11.3148 8.08083 11.3247 7.84995 11.3371C6.78295 11.4147 5.68083 11.4371 4.64133 11.7033C1.73752 12.6574 1.09095 16.2312 1.74264 18.8546C1.68308 20.435 1.58914 22.6881 1.55995 24.2473C1.23858 26.4263 1.62977 29.0571 3.63389 30.3456C5.29077 31.2752 7.31152 30.9991 9.14039 31.1766C13.3148 31.2602 17.5111 31.0002 21.6835 30.8338C22.29 30.808 22.337 29.87 21.7386 29.7787ZM9.6537 6.86387C9.7407 4.05956 11.4175 1.95818 14.2399 1.5905C20.0079 0.899495 20.577 7.3815 20.7554 11.7004C19.9088 11.6632 18.9531 11.6291 18.2375 11.5872C15.3925 11.4531 12.4936 11.2435 9.61489 11.2809C9.7382 9.81243 9.52002 8.32837 9.6537 6.86387ZM26.7762 28.9016C24.7231 28.9141 24.5453 31.897 26.6823 31.9999C28.8223 32.0237 29.0518 28.8744 26.7762 28.9016Z" fill="white"/>
<path d="M26.9981 16.5411C24.8759 16.3208 22.9545 18.1043 22.9348 20.227C22.897 20.8981 23.9532 20.9574 23.9876 20.2841C24.0116 19.8077 24.1366 19.3466 24.3859 18.9462C25.1504 17.6009 27.2224 17.3066 28.1924 18.5732C29.9925 20.5333 27.4458 22.3497 26.3272 23.9254C25.818 24.6528 26.0469 25.6832 26.2681 26.4052C26.403 26.9528 27.2624 26.9002 27.3245 26.3327C27.4331 25.9072 27.3216 25.1463 27.677 24.8821C28.8161 23.8402 30.0836 22.7244 30.4526 21.1557C30.9725 19.0219 29.0938 16.7708 26.9981 16.5411Z" fill="white"/>
</g>
<defs>
<clipPath id="clip0_102_3485">
<rect width="32" height="32" fill="white"/>
</clipPath>
</defs>
</svg>
